<svg xmlns="http://www.w3.org/2000/svg" width="459" height="186.66"><path d="M414.324 186.048h28.151v-8.874h-18.054v-27.54h-10.404v36.414h.307zm-34.272 0h28.152v-8.874H390.15v-27.54h-10.404v36.414h.306zm-46.206 0h10.71l2.754-6.426h14.383l2.754 6.426h11.016l-15.912-36.72h-9.792l-15.913 36.72zm16.524-14.382l4.284-10.404 4.283 10.404h-8.567zm-57.528 14.688h8.874l7.344-21.114 7.345 21.114h8.874l12.546-36.721H327.42l-6.426 21.114-7.038-21.114h-8.874l-7.038 21.114-6.426-21.114h-11.017l12.241 36.721zm-58.14-.306h29.988v-8.567H244.8v-5.814h17.748v-7.956H244.8v-5.508h19.584v-8.568h-29.987v36.414h.305zm-40.698 0h10.404v-13.77h12.852v13.77h10.404v-36.414H217.26v13.771h-13.158v-13.771h-10.404v36.414h.306zm-28.458 0h10.404v-27.54h11.016v-8.874H154.53v8.874h11.016v27.54zm-58.446 0h10.404V172.89h17.442v-8.262h-17.442v-6.12h19.278v-8.874H107.1v36.414zm-35.802 0h10.404V172.89h17.442v-8.262H81.702v-6.12h19.278v-8.874H71.298v36.414zm-46.206-18.36c0 10.403 8.568 18.972 19.89 18.972 11.322 0 20.196-8.568 20.196-18.972 0-10.404-8.568-18.973-19.89-18.973-11.628.001-20.196 8.569-20.196 18.973m29.376 0c0 5.201-3.672 9.792-9.486 9.792-5.508 0-9.486-4.591-9.486-9.792 0-5.202 3.672-9.792 9.486-9.792 5.508 0 9.486 4.59 9.486 9.792m396.27-3.366h7.038L459 149.328h-7.038l-1.224 14.994zm-443.7-14.994H0l1.224 14.994h7.038l-1.224-14.994zm432.684 14.994h7.038l1.225-14.994h-7.038l-1.225 14.994zm-420.444 0H12.24l-1.224-14.994h7.038l1.224 14.994z"/><path fill="#D6000F" d="M179.01 89.046l9.18-27.54 9.18 27.54h-18.36zm-34.884 27.847h23.868l4.59-12.853h31.518l4.59 12.853h23.562L201.96 34.272h-25.092l-32.742 82.621zm254.592-4.897c0 .307-.306.611-.918.611h-.918v-1.223h.918c.612-.306.918.001.918.612zm.918-.307c0-.918-.611-1.529-1.836-1.529h-2.142v4.59h.918v-1.529h.918l.918 1.529h1.224l-1.224-1.529c.918-.307 1.224-.614 1.224-1.532zm1.836.918c0 2.143-1.529 3.979-3.978 3.979-2.143 0-3.979-1.836-3.979-3.979 0-2.141 1.53-3.978 3.979-3.978 2.142.307 3.978 1.837 3.978 3.978zm.612 0c0-2.447-1.836-4.283-4.284-4.283s-4.284 2.142-4.284 4.283c0 2.449 1.836 4.285 4.284 4.285 2.142.306 4.284-1.835 4.284-4.285zM262.242 75.276l30.906 41.922h19.277V34.272h-22.338v44.982l-28.152-44.982h-21.42v82.926h21.42V75.276h.307zM56.916 0c.306.612 41.616 117.198 41.616 117.198h24.786l38.25-96.696h237.457L400.861.306H143.514l-31.518 79.866L83.538 0H56.916m337.212 57.528h-19.89c-1.836-4.896-3.979-8.568-15.301-8.568-7.649 0-11.016 3.06-11.016 6.426s2.754 6.426 11.322 8.262l18.054 4.896c11.935 3.06 17.442 12.546 17.442 22.338 0 5.509-1.225 12.24-6.427 17.748-3.978 3.978-9.792 9.486-29.376 9.486-26.928 0-35.802-17.136-35.802-27.234h21.114c2.142 7.65 7.344 10.404 17.441 10.404 7.038 0 13.158-2.448 13.158-7.956 0-5.202-4.283-7.038-10.098-8.568l-14.382-3.978c-6.732-2.142-12.546-3.672-16.83-7.344-10.71-8.874-9.792-25.398 1.836-33.66 6.426-4.59 12.852-7.038 23.256-7.038 12.24 0 19.278 3.366 24.786 7.344 4.899 3.06 10.713 11.016 10.713 17.442"/></svg>