<svg xmlns="http://www.w3.org/2000/svg" width="566.1" height="230.01"><path fill="#FFF" d="M510.765 229.245H545.7V218.28h-22.186v-34.17h-12.75v45.135h.001zm-41.821 0h34.936V218.28h-22.186v-34.17h-12.75v45.135zm-57.375 0h13.261l3.314-8.16h17.596l3.314 8.16h13.515l-19.38-45.391H430.95l-19.381 45.391zm20.401-17.85l5.1-12.75 5.101 12.75H431.97zM361.335 229.5H372.3l9.18-26.01 9.181 26.01h10.965l15.3-45.391h-13.26l-7.905 26.011-8.925-26.266H375.87l-8.926 26.266-7.904-26.011h-13.516l15.811 45.391zm-71.91-.255H326.4v-10.71h-24.48v-7.141h21.93v-9.689h-21.93v-6.885h24.225v-10.71h-36.72v45.135zm-50.235 0h12.75V212.16h16.32v17.085h12.75v-44.88h-12.75v16.83h-16.32v-16.83h-12.75v44.88zm-34.935 0h12.75v-34.17h13.77V184.11H190.74v10.965h13.77v34.17h-.255zm-72.165 0h12.75V213.18h21.675v-10.455H144.84v-7.649h23.97V184.11h-36.72v45.135zm-44.115 0h12.75V213.18H122.4v-10.455h-21.675v-7.649h23.97V184.11h-36.72v45.135zm-57.12-22.44c0 13.005 10.455 23.205 24.48 23.205s24.735-10.455 24.735-23.46-10.455-23.205-24.48-23.205c-14.28 0-24.735 10.455-24.735 23.46m36.465 0c0 6.375-4.59 11.985-11.73 11.985-6.885 0-11.73-5.61-11.73-12.24 0-6.375 4.59-11.985 11.475-11.985 7.14-.001 11.985 5.61 11.985 12.24m488.579-4.335h8.67l1.53-18.359h-8.67l-1.53 18.359zM8.67 184.11H0l1.53 18.359h8.67L8.67 184.11zm533.46 18.36h8.67l1.53-18.359h-8.67l-1.53 18.359zm-518.16 0H15.3l-1.53-18.359h8.67l1.53 18.359zm201.705-92.565L237.15 75.99l11.22 33.915h-22.695zM182.58 144.33h29.325l5.355-16.065h38.76l5.61 16.065h29.07l-36.976-102h-31.11l-40.034 102zm313.904-6.375c0 .51-.255.765-1.02.765h-1.275v-1.785h1.275c.511 0 1.02.255 1.02 1.02zm1.276-.255c0-1.275-.765-1.785-2.295-1.785h-2.55v5.865h1.274v-1.785h1.021l1.274 1.785h1.53l-1.53-2.041c.766-.51 1.276-1.019 1.276-2.039zm2.04 1.275c0 2.55-2.04 4.846-4.845 4.846-2.806 0-4.846-2.04-4.846-4.846 0-2.55 2.04-4.845 4.846-4.845 2.805 0 4.845 2.04 4.845 4.845zm.764 0c0-3.06-2.295-5.354-5.354-5.354-3.061 0-5.355 2.55-5.355 5.354 0 3.061 2.295 5.355 5.355 5.355 3.06 0 5.354-2.55 5.354-5.355zm-172.125-46.41l38.25 51.51h23.971v-102h-27.54v55.59l-34.681-55.59h-26.52v102h26.52v-51.51zM75.225 0c.255.765 51.51 144.33 51.51 144.33h30.6L204.51 24.99h292.74L499.545 0H182.07L142.8 98.94 107.61 0H75.225M490.62 71.145h-24.48c-2.295-6.12-5.1-10.71-18.87-10.71-9.435 0-13.515 3.825-13.515 7.905 0 4.335 3.314 7.905 13.77 10.2l22.186 5.865c14.535 3.825 21.675 15.555 21.675 27.795 0 6.885-1.53 15.045-7.905 21.675-4.845 5.101-12.24 11.729-36.21 11.729-33.405 0-44.115-21.164-44.115-33.66h26.011c2.55 9.18 8.925 12.75 21.42 12.75 8.67 0 16.319-3.06 16.319-9.689 0-6.375-5.354-8.67-12.494-10.71l-17.596-4.845c-8.415-2.55-15.555-4.59-20.654-8.925-13.261-11.22-12.24-31.365 2.04-41.82 7.904-5.865 16.064-8.67 28.814-8.67 15.045 0 23.715 4.335 30.601 8.925 5.862 4.08 13.003 14.025 13.003 22.185"/></svg>